<svg width="54" height="24" viewBox="0 0 54 24" fill="none" xmlns="http://www.w3.org/2000/svg">
<path d="M15.8158 8.83065C12.3338 6.44742 12 0 12 0C12 0 11.6662 6.44742 8.1899 8.83065C4.7136 11.2139 0 12.0022 0 12.0022C0 12.0022 4.71373 12.7997 8.1899 15.1738C11.6662 17.5479 12 24 12 24C12 24 12.3338 17.5571 15.8158 15.1738C19.2978 12.7906 24 12.0022 24 12.0022C24.0004 12.0022 19.2926 11.2139 15.8158 8.83065Z" fill="#5b1b1c"/>
<path d="M37.4895 10.2984C35.4003 8.86845 35.2 5 35.2 5C35.2 5 34.9997 8.86845 32.9139 10.2984C30.8282 11.7283 28 12.2013 28 12.2013C28 12.2013 30.8282 12.6798 32.9139 14.1043C34.9997 15.5287 35.2 19.4 35.2 19.4C35.2 19.4 35.4003 15.5342 37.4895 14.1043C39.5787 12.6744 42.4 12.2013 42.4 12.2013C42.4003 12.2013 39.5755 11.7284 37.4895 10.2984Z" fill="#5b1b1c"/>
<path d="M51.4284 11.4726C50.4535 10.8053 50.36 9 50.36 9C50.36 9 50.2665 10.8053 49.2932 11.4726C48.3198 12.1399 47 12.3606 47 12.3606C47 12.3606 48.3198 12.5839 49.2932 13.2487C50.2665 13.9134 50.36 15.72 50.36 15.72C50.36 15.72 50.4535 13.916 51.4284 13.2487C52.4034 12.5814 53.72 12.3606 53.72 12.3606C53.7201 12.3606 52.4019 12.1399 51.4284 11.4726Z" fill="#5b1b1c"/>
</svg>
